<?xml version="1.0" encoding="UTF-8"?>
<svg version="1.1" xmlns="http://www.w3.org/2000/svg" width="256" height="256">
<path d="M0 0 C1.29924328 0.60110557 2.59101472 1.21855148 3.87597656 1.84960938 C4.58747864 2.18319458 5.29898071 2.51677979 6.03204346 2.86047363 C7.56503497 3.58115628 9.09480743 4.30871907 10.62158203 5.04248047 C13.90627271 6.62087312 17.20640028 8.1656845 20.50598145 9.71264648 C22.2199023 10.51647381 23.93303053 11.32199321 25.64538574 12.12915039 C33.39962117 15.77902363 41.21886765 19.27031574 49.06246948 22.72302246 C64.91524069 29.70197315 80.66863959 36.88663987 96.39431763 44.14685059 C97.10885101 44.47672974 97.8233844 44.80660889 98.55957031 45.14648438 C99.24808075 45.4644397 99.93659119 45.78239502 100.64596558 46.10998535 C105.50063091 48.3487096 110.37232894 50.54276166 115.26660156 52.69335938 C115.26660156 53.68335938 115.26660156 54.67335937 115.26660156 55.69335938 C114.38171555 56.13469208 113.49682953 56.57602478 112.58512878 57.0307312 C104.15760868 61.23425996 95.73120392 65.44001733 87.30582714 69.6478405 C82.97647804 71.80992956 78.64676849 73.97128956 74.31616211 76.13085938 C49.11560265 88.67348063 49.11560265 88.67348063 24.15640259 101.68695068 C18.6406842 104.62433237 13.08314685 107.47866904 7.51660156 110.31835938 C6.92169922 110.62950684 6.32679688 110.9406543 5.71386719 111.26123047 C3.95193631 112.1817203 2.17967496 113.08235042 0.40722656 113.98242188 C-0.60823242 114.50529785 -1.62369141 115.02817383 -2.66992188 115.56689453 C-7.75660509 117.43730865 -11.28808694 117.28947853 -16.29443359 115.22460938 C-17.54464035 114.56153472 -18.78710778 113.88371255 -20.02246094 113.19335938 C-21.02193253 112.6606543 -21.02193253 112.6606543 -22.04159546 112.1171875 C-24.154809 110.98943006 -26.25719957 109.8433268 -28.35839844 108.69335938 C-30.46743278 107.54490394 -32.5784431 106.40103443 -34.69662476 105.26953125 C-36.00994954 104.56753065 -37.31808334 103.85570468 -38.62002563 103.1328125 C-42.14084426 101.2457719 -44.723856 100.26780263 -48.73339844 100.69335938 C-50.83518477 104.10876217 -51.3016107 106.71587353 -50.73339844 110.69335938 C-46.58877269 115.91091537 -41.15806526 118.24961036 -35.23339844 121.06835938 C-33.25456543 122.02730104 -31.27669611 122.98823392 -29.29980469 123.95117188 C-28.34477051 124.41555664 -27.38973633 124.87994141 -26.40576172 125.35839844 C-21.9247066 127.59687911 -17.60275263 130.09629231 -13.29199219 132.64648438 C-10.07454069 133.96293781 -9.07179098 133.64431517 -5.73339844 132.69335938 C-2.89019997 131.47762287 -0.14082206 130.09168915 2.61767578 128.69604492 C3.86011551 128.07635834 3.86011551 128.07635834 5.12765503 127.44415283 C7.86180448 126.07858056 10.59156174 124.70446595 13.32128906 123.33007812 C15.22528106 122.37655252 17.12951029 121.42350046 19.03396606 120.47090149 C23.02529799 118.47293459 27.01463431 116.47105721 31.00244141 114.46606445 C36.10280547 111.90176834 41.20659397 109.3443848 46.31171989 106.78958416 C50.24520759 104.82075646 54.17755782 102.84966655 58.10950089 100.87775612 C59.99030458 99.93451402 61.87129167 98.99163751 63.75246811 98.04913902 C66.38827034 96.72778131 69.02270419 95.40373559 71.65673828 94.07885742 C72.42787964 93.69272781 73.199021 93.30659821 73.99353027 92.9087677 C77.43141141 91.17630756 80.79419049 89.39836509 84.09890747 87.42243958 C88.20676946 85.1801704 89.78717168 85.42363689 94.26660156 86.69335938 C97.79760216 88.12636492 101.18333966 89.77957751 104.57910156 91.50585938 C105.48466797 91.94478516 106.39023438 92.38371094 107.32324219 92.8359375 C108.18755859 93.26970703 109.051875 93.70347656 109.94238281 94.15039062 C111.11667847 94.73784058 111.11667847 94.73784058 112.31469727 95.3371582 C114.5484756 96.88920806 115.27570202 98.19340172 116.26660156 100.69335938 C115.51789795 101.06509277 114.76919434 101.43682617 113.99780273 101.81982422 C111.11345411 103.25327414 108.23013505 104.68877217 105.34741211 106.12548828 C103.52889796 107.03111067 101.70929602 107.93454777 99.88964844 108.83789062 C92.07714566 112.72777407 84.33683672 116.74163768 76.62091064 120.8195343 C63.23552402 127.88828081 49.74114137 134.74737953 36.2532959 141.61799622 C31.06651629 144.2607971 25.88713649 146.91729377 20.71430969 149.58729553 C17.59636749 151.19329494 14.47251039 152.78750926 11.34695435 154.37863159 C9.88972726 155.12346791 8.43497285 155.87316406 6.98287964 156.62796021 C4.97714297 157.66952579 2.96316669 158.69310681 0.94628906 159.71289062 C-0.74391357 160.58071167 -0.74391357 160.58071167 -2.46826172 161.46606445 C-7.52192195 163.36562704 -11.06131359 163.37613042 -16.06665039 161.33227539 C-17.19031006 160.71022217 -18.31396973 160.08816895 -19.47167969 159.44726562 C-20.07852097 159.11669662 -20.68536224 158.78612762 -21.31059265 158.44554138 C-23.23020372 157.39588339 -25.13790718 156.32646653 -27.04589844 155.25585938 C-28.3452847 154.54031404 -29.6454093 153.82610776 -30.94628906 153.11328125 C-33.31804804 151.8116625 -35.68391164 150.50108298 -38.04711914 149.18383789 C-42.02231692 146.97820466 -44.15727113 146.59387835 -48.73339844 146.69335938 C-51.0380054 149.94692214 -50.95698141 152.86245131 -50.39233398 156.73632812 C-49.45589877 159.51753029 -47.65207024 160.64550646 -45.12353516 161.98876953 C-44.45854004 162.30378418 -43.79354492 162.61879883 -43.10839844 162.94335938 C-42.41633301 163.29833496 -41.72426758 163.65331055 -41.01123047 164.01904297 C-39.46310839 164.81211485 -37.90915095 165.5938638 -36.35058594 166.36621094 C-33.4511689 167.83647503 -30.60977682 169.39415398 -27.76464844 170.96679688 C-25.71306348 172.08489932 -23.66098299 173.20209303 -21.60839844 174.31835938 C-20.62532715 174.86395508 -19.64225586 175.40955078 -18.62939453 175.97167969 C-17.6917627 176.47022461 -16.75413086 176.96876953 -15.78808594 177.48242188 C-14.95776855 177.93311035 -14.12745117 178.38379883 -13.27197266 178.84814453 C-9.18025818 180.21047532 -6.37668937 179.44192518 -2.49252319 177.6725769 C0.24064886 176.29113506 2.934208 174.84913339 5.62597656 173.38867188 C7.69597032 172.28691301 9.7669665 171.18703581 11.83886719 170.08886719 C12.90242432 169.52397583 13.96598145 168.95908447 15.06176758 168.3770752 C20.11996497 165.71966236 25.22879757 163.16708963 30.34472656 160.62304688 C31.34588501 160.12419983 32.34704346 159.62535278 33.37854004 159.11138916 C36.4236892 157.59528608 39.46995171 156.08144428 42.51660156 154.56835938 C46.58557497 152.54745316 50.65347385 150.52442222 54.71972656 148.49804688 C55.69679565 148.01148621 56.67386475 147.52492554 57.68054199 147.02362061 C64.91435831 143.40640923 72.08234164 139.67480267 79.19268799 135.82028198 C87.30415821 131.47161172 87.30415821 131.47161172 91.26660156 130.69335938 C94.24267578 131.65966797 94.24267578 131.65966797 97.32128906 133.34179688 C98.42988281 133.93476563 99.53847656 134.52773437 100.68066406 135.13867188 C101.82277344 135.77546875 102.96488281 136.41226563 104.14160156 137.06835938 C105.31768684 137.70562144 106.49476253 138.34105927 107.67285156 138.97460938 C110.54768843 140.52984899 113.4110805 142.10301479 116.26660156 143.69335938 C114.96167957 147.60812534 113.68547673 147.80267324 110.05566406 149.63476562 C108.93192383 150.20855957 107.80818359 150.78235352 106.65039062 151.37353516 C105.39750105 152.00105666 104.14456999 152.62849533 102.89160156 153.25585938 C101.58086679 153.92135303 100.27065636 154.58788031 98.9609375 155.25537109 C96.16756452 156.67772642 93.37174885 158.09511683 90.57421875 159.50927734 C86.3709442 161.63678019 82.180176 163.78796362 77.99316406 165.94726562 C77.30238266 166.30348495 76.61160126 166.65970428 75.89988708 167.02671814 C74.48713957 167.75532707 73.07441492 168.48398036 71.66171265 169.212677 C64.86766098 172.714623 58.06646156 176.20270955 51.26660156 179.69335938 C49.9755954 180.35609863 49.9755954 180.35609863 48.6585083 181.03222656 C43.1923972 183.83794435 37.72554721 186.64221676 32.25793457 189.44500732 C30.50333013 190.34453693 28.74884951 191.24430813 26.99450684 192.14434814 C22.94717215 194.22051976 18.89786604 196.29255042 14.84326172 198.35449219 C11.78866513 199.9089138 8.74906287 201.48847903 5.71728516 203.08691406 C4.28978458 203.8282618 2.8622163 204.5694792 1.43457031 205.31054688 C0.79594559 205.65417267 0.15732086 205.99779846 -0.50065613 206.35183716 C-4.44819734 208.38141302 -7.31759229 209.34319247 -11.73339844 208.69335938 C-14.41284135 207.5351613 -16.85663775 206.34408265 -19.39746094 204.93945312 C-20.11195404 204.55974869 -20.82644714 204.18004425 -21.56259155 203.78883362 C-23.83431974 202.58113696 -26.09713997 201.3580351 -28.35839844 200.13085938 C-31.34340437 198.51150315 -34.33627474 196.90830377 -37.33496094 195.31445312 C-38.01732819 194.93743759 -38.69969543 194.56042206 -39.40274048 194.17198181 C-43.04080469 192.2228511 -43.04080469 192.2228511 -47.07080078 191.77954102 C-49.08462586 192.71971642 -49.08462586 192.71971642 -50.73339844 195.69335938 C-51.06831517 200.82771058 -51.06831517 200.82771058 -49.73339844 205.69335938 C-48.07896601 206.38983304 -46.40894118 207.0493262 -44.73339844 207.69335938 C-42.503593 208.79495653 -40.2858736 209.92117637 -38.07714844 211.06445312 C-37.45239624 211.38744888 -36.82764404 211.71044464 -36.18395996 212.04322815 C-34.86897064 212.72375011 -33.55456773 213.40540629 -32.24072266 214.08813477 C-30.24111638 215.12685021 -28.23937007 216.16134625 -26.23730469 217.1953125 C-16.0747359 222.45979416 -16.0747359 222.45979416 -13.12988281 224.47485352 C-10.84298692 225.87620777 -10.84298692 225.87620777 -8.45654297 225.63842773 C-4.5200311 224.27225977 -0.87468883 222.45708801 2.83691406 220.57226562 C4.09047195 219.9440818 4.09047195 219.9440818 5.36935425 219.3032074 C7.14429233 218.41237833 8.91778939 217.51867312 10.68994141 216.62231445 C13.33102333 215.28649885 15.97604417 213.95880254 18.62207031 212.6328125 C28.00185461 207.9211756 37.32273566 203.10898542 46.60021973 198.19918823 C53.31246496 194.65242311 60.0843999 191.24228424 66.89160156 187.88085938 C69.05144136 186.81384174 71.2103157 185.74486735 73.36816406 184.67382812 C74.87685059 183.92818604 74.87685059 183.92818604 76.41601562 183.16748047 C79.76710477 181.43453457 82.97273159 179.50949099 86.14697266 177.47192383 C90.04619914 176.0396924 93.30259013 177.25963266 96.96728516 178.90844727 C97.85754395 179.40594482 98.74780273 179.90344238 99.66503906 180.41601562 C101.12490234 181.22329102 101.12490234 181.22329102 102.61425781 182.046875 C103.61328125 182.61083984 104.61230469 183.17480469 105.64160156 183.75585938 C106.66382813 184.32369141 107.68605469 184.89152344 108.73925781 185.4765625 C111.25288496 186.87432713 113.76167183 188.28008578 116.26660156 189.69335938 C115.26660156 192.69335938 115.26660156 192.69335938 113.43505859 193.88500977 C112.6395459 194.2664917 111.8440332 194.64797363 111.02441406 195.04101562 C110.13391357 195.47559082 109.24341309 195.91016602 108.32592773 196.35791016 C107.3576001 196.8192334 106.38927246 197.28055664 105.39160156 197.75585938 C103.34782203 198.75289702 101.30486452 199.75162129 99.26269531 200.75195312 C98.24030762 201.25065918 97.21791992 201.74936523 96.16455078 202.26318359 C92.22144482 204.20915788 88.33429134 206.25048172 84.45410156 208.31835938 C75.76139955 212.93145053 67.01775296 217.44252924 58.26660156 221.94335938 C55.39934363 223.41848293 52.53216675 224.89376395 49.66503906 226.36914062 C48.95687546 226.73353745 48.24871185 227.09793427 47.51908875 227.47337341 C41.77251956 230.43116334 36.02988976 233.39646444 30.29125977 236.36962891 C28.05122004 237.53010622 25.81019416 238.68868225 23.56811523 239.84521484 C18.56249373 242.43324301 13.5826413 245.05229438 8.65332031 247.78320312 C7.7894873 248.25636963 6.9256543 248.72953613 6.03564453 249.21704102 C4.46548302 250.08077029 2.90244183 250.95765726 1.34912109 251.85131836 C0.65802246 252.22973877 -0.03307617 252.60815918 -0.74511719 252.99804688 C-1.32737061 253.32788574 -1.90962402 253.65772461 -2.50952148 253.99755859 C-7.43037006 255.53718078 -11.49696765 255.17096039 -16.19824219 253.35498047 C-17.91720703 252.42032959 -17.91720703 252.42032959 -19.67089844 251.46679688 C-20.30459351 251.12756195 -20.93828857 250.78832703 -21.59118652 250.43881226 C-23.64796068 249.33169683 -25.69049339 248.20083158 -27.73339844 247.06835938 C-29.16968047 246.28769303 -30.6065365 245.50808188 -32.04394531 244.72949219 C-41.51085525 239.57732385 -50.85525773 234.22044902 -60.12915039 228.72851562 C-67.95419841 224.10169257 -75.91008669 219.75651058 -83.91992188 215.45947266 C-93.20725886 210.467185 -102.3649946 205.26523421 -111.49072266 199.984375 C-113.55530749 198.79587896 -115.62808952 197.62388004 -117.70605469 196.45898438 C-119.35927734 195.523125 -119.35927734 195.523125 -121.04589844 194.56835938 C-121.97015625 194.05015625 -122.89441406 193.53195313 -123.84667969 192.99804688 C-124.78060547 192.35222656 -124.78060547 192.35222656 -125.73339844 191.69335938 C-125.73339844 191.03335938 -125.73339844 190.37335938 -125.73339844 189.69335938 C-124.76515137 189.22438232 -123.7969043 188.75540527 -122.79931641 188.2722168 C-119.18731597 186.52259648 -115.57555638 184.77247949 -111.96386719 183.0222168 C-110.40436197 182.26654859 -108.84479255 181.51101285 -107.28515625 180.75561523 C-105.03596135 179.66620634 -102.78700215 178.57631217 -100.53808594 177.48632812 C-99.84721893 177.15183151 -99.15635193 176.8173349 -98.44454956 176.47270203 C-97.45420212 175.99254387 -97.45420212 175.99254387 -96.44384766 175.50268555 C-95.50288239 175.04724869 -95.50288239 175.04724869 -94.54290771 174.58261108 C-92.80751271 173.72978154 -91.08856963 172.84371824 -89.37060547 171.95629883 C-86.73339844 170.69335938 -86.73339844 170.69335938 -84.73339844 170.69335938 C-84.73339844 170.03335938 -84.73339844 169.37335938 -84.73339844 168.69335938 C-85.90902344 168.37238281 -85.90902344 168.37238281 -87.10839844 168.04492188 C-91.97201882 166.23154617 -96.26119893 163.68368073 -100.73339844 161.06835938 C-102.60187768 159.98761233 -104.4703673 158.90688323 -106.33886719 157.82617188 C-107.25200684 157.29540039 -108.16514648 156.76462891 -109.10595703 156.21777344 C-112.74223978 154.10804016 -116.39315575 152.02441559 -120.04589844 149.94335938 C-121.94173177 148.86002604 -123.8375651 147.77669271 -125.73339844 146.69335938 C-124.73339844 143.69335938 -124.73339844 143.69335938 -123.1325531 142.61128235 C-122.4419429 142.28041122 -121.7513327 141.9495401 -121.03979492 141.60864258 C-119.86869423 141.03839104 -119.86869423 141.03839104 -118.67393494 140.45661926 C-117.82601883 140.05650131 -116.97810272 139.65638336 -116.10449219 139.24414062 C-115.24026138 138.82666061 -114.37603058 138.4091806 -113.48561096 137.97904968 C-110.71852871 136.6450733 -107.94490584 135.32536519 -105.17089844 134.00585938 C-103.29610233 133.10509675 -101.42174725 132.20341556 -99.54785156 131.30078125 C-94.94808775 129.08760771 -90.34240813 126.88720884 -85.73339844 124.69335938 C-88.42140503 121.87459205 -91.14961511 120.20442478 -94.58105469 118.33007812 C-95.43805214 117.85837944 -95.43805214 117.85837944 -96.31236267 117.37715149 C-98.1375797 116.37350488 -99.966476 115.37681655 -101.79589844 114.38085938 C-115.32448449 106.98323971 -115.32448449 106.98323971 -121.60449219 103.33789062 C-122.40685303 102.87358643 -123.20921387 102.40928223 -124.03588867 101.9309082 C-124.59606689 101.52251709 -125.15624512 101.11412598 -125.73339844 100.69335938 C-125.73339844 100.03335938 -125.73339844 99.37335938 -125.73339844 98.69335938 C-112.1517926 91.83983055 -98.51391591 85.13805866 -84.73339844 78.69335938 C-92.38684904 73.76240488 -100.35570921 69.42542192 -108.33544922 65.05371094 C-110.13097507 64.0689601 -111.92444589 63.08054381 -113.71777344 62.09179688 C-114.77706055 61.51091309 -115.83634766 60.9300293 -116.92773438 60.33154297 C-119.36260017 58.90986272 -121.60651289 57.54335333 -123.73339844 55.69335938 C-123.73339844 55.03335938 -123.73339844 54.37335937 -123.73339844 53.69335938 C-116.21272643 50.0055303 -108.69184061 46.31813743 -101.17089844 42.63085938 C-100.03447906 42.07368225 -98.89805969 41.51650513 -97.72720337 40.94244385 C-84.9453592 34.67581165 -72.16220381 28.41189811 -59.37402344 22.15820312 C-58.31631241 21.64090134 -57.25860138 21.12359955 -56.1688385 20.59062195 C-51.14379942 18.13308695 -46.11843023 15.67623091 -41.0925293 13.22045898 C-40.17037125 12.7693425 -39.2482132 12.31822601 -38.29811096 11.85343933 C-36.52157191 10.98515616 -34.74412551 10.11872647 -32.96568298 9.25434875 C-29.14174705 7.3908045 -25.34107204 5.50428152 -21.59130859 3.49511719 C-20.96178787 3.16275055 -20.33226715 2.83038391 -19.68367004 2.48794556 C-18.05959549 1.62485788 -16.44538342 0.74327768 -14.83227539 -0.14013672 C-9.39340302 -2.18748031 -5.34719929 -1.87144982 0 0 Z " fill="#0104D3" transform="translate(133.7333984375,1.306640625)"/>
</svg>
